<?xml version="1.0" encoding="utf-8" ?><svg xmlns="http://www.w3.org/2000/svg" xmlns:xlink="http://www.w3.org/1999/xlink"  viewBox="-60 100 900 900"><clipPath id="cl_5"><rect x="-0.0078125" y="0.0078125" width="798" height="1595.0001"/></clipPath><g clip-path="url(#cl_5)"><path fill="#ECF1F8" transform="matrix(1.55859 0 0 1.55762 -399.008 0.0078125)" d="M421.457 254.034C427.193 251.697 431.958 248.074 437.495 245.586C441.636 243.726 446.418 243.419 450.482 241.338C457.553 237.715 463.787 232.506 471.089 229.335C475.012 227.631 479.475 226.952 483.583 225.741C491.322 223.458 498.991 220.781 506.853 218.953C528.723 213.868 562.075 210.772 582.805 220.239C586.028 221.711 588.797 224.694 591.869 226.571C591.997 226.649 592.126 226.725 592.255 226.802L627.493 245.279C632.044 247.663 638.282 250.076 642.259 253.255L643.636 252.79L643.987 251.972L644.745 250.239C645.807 247.811 647.408 245.553 649.991 244.606C654.422 242.98 660.125 244.782 664.123 246.839C675.404 252.646 684.22 266.083 687.915 277.923C689.667 283.536 690.87 291.373 688.036 296.755C684.862 302.783 676.683 303.753 671.618 307.785C672.953 308.608 674.318 309.387 675.529 310.388C680.446 311.461 685.898 312.198 690.553 314.137C689.896 319.07 689.559 327.995 686.462 331.927L685.455 332.235L682.732 333.387C682.59 335.765 683.188 338.016 683.964 340.247C685.553 344.819 694.442 364.201 697.595 367.473C698.957 368.887 700.889 369.968 702.6 370.91C708.316 373.134 715.721 375.635 719.301 380.891C721.027 385.391 722.962 388.541 726.199 392.109C722.886 396.75 706.233 416.934 706.023 420.529C709.288 422.863 710.883 426.107 711.452 430.027C712.114 434.581 711.705 439.665 711.136 444.208C710.426 449.88 705.707 471.123 703.721 475.823C702.922 477.714 701.419 479.501 700.185 481.142C697.333 484.937 696.212 489.713 693.683 493.709C685.935 505.951 672.507 523.132 661.213 531.936C652.194 538.966 641.522 544.659 630.88 548.884C626.587 550.588 621.925 551.886 617.773 553.861C616.402 554.513 615.635 555.608 614.799 556.83C614.729 563.602 614.75 570.375 614.862 577.146C618.588 577.524 622.99 575.844 626.782 575.528C635.244 574.825 652.414 579.937 660.139 583.735C663.14 585.21 666.805 587.309 667.799 590.746C668.333 592.59 667.931 594.482 666.973 596.114C661.972 604.634 640.374 609.223 630.971 611.395C592.347 620.316 551.476 620.611 512.04 620.569C493.37 620.549 474.643 620.759 456.019 619.273C442.623 618.204 429.127 616.861 415.851 614.775C410.907 613.998 406.052 612.744 401.127 611.864C388.25 609.562 374.366 608.267 363.115 600.906C360.705 599.329 358.224 597.052 357.746 594.062C357.486 592.434 358.013 590.86 358.971 589.557C365.933 580.095 395.968 575.392 407.181 573.655C407.61 570.208 406.981 566.533 406.63 563.081C405.566 561.64 404.52 560.229 403.075 559.139C399.329 556.315 394.758 554.131 390.716 551.725C382.886 547.065 374.422 541.707 367.409 535.909C362.551 531.893 354.864 520.736 348.581 519.793C347.82 519.679 347.59 520.017 346.99 520.397C345.23 525.821 354.779 533.778 357.609 538.186C359.479 541.101 360.396 543.909 361.278 547.208C360.891 548.513 360.507 549.91 359.813 551.091C358.936 552.583 357.374 553.401 355.721 553.743C351.752 554.565 347.724 552.731 344.489 550.577C337.75 546.087 330.323 538.003 328.826 529.807C327.967 525.105 329.113 520.353 331.811 516.437C330.496 515.93 329.088 515.547 327.744 515.112C323.772 517.585 303.428 526.771 299.454 527.265C295.532 525.611 272.058 493.039 267.525 486.998C267.955 486.552 268.375 486.099 268.8 485.648C270.519 483.823 271.635 482.162 272.826 479.978C272.934 479.807 273.032 479.629 273.15 479.465C276.656 474.603 289.163 470.175 295.011 469.377C297.384 468.346 299.945 468.014 302.362 467.129C304.049 466.512 304.982 465.825 305.778 464.177C305.795 463.139 305.802 462.206 305.986 461.183C306.172 460.151 306.129 460.794 306.068 459.551L304.737 459.037L304.355 457.998C309.347 442.645 302.966 428.656 302.05 413.305C301.661 406.769 303.156 388.897 304.385 382.57C305.144 378.663 306.446 374.797 307.601 370.989C309.911 369.182 310.799 368.212 311.669 365.326C312.058 364.461 312.415 364.087 313.058 363.412C320.323 355.246 320.008 343.927 325.642 334.764C328.402 330.274 331.865 326.141 335.318 322.164C338.549 318.444 345.411 313.125 346.933 308.523C337.766 308.229 328.516 308.088 319.345 308.292C312.977 308.433 306.158 309.235 299.847 308.412C298.958 305.304 299.326 301.37 299.296 298.119C303.336 298.034 307.685 298.655 311.643 297.842C312.006 296.943 311.925 297.326 312.022 296.345C312.123 295.323 311.906 295.835 312.675 294.881C313.695 293.613 314.616 292.905 316.266 292.743C318.023 292.571 318.868 292.586 320.141 291.255C321.745 285.181 316.119 272.437 314.17 266.324C313.687 264.808 313.526 263.179 314.505 261.811C315.779 260.033 318.619 260.054 320.434 259.023C323.498 257.283 326.797 253.372 329.408 250.905C332.343 248.132 338.556 239.794 342.353 239.459C345.857 239.149 348.883 242.222 351.24 244.408C360.216 245.063 364.534 247.053 370.483 253.851C368.663 255.445 366.912 257.064 365.198 258.774C365.023 260.43 364.92 262.236 364.443 263.835C362.348 270.847 355.171 268.894 349.931 270.662C348.146 271.265 346.364 272.443 344.731 273.383C333.114 256.194 346.231 251.169 345.694 245.977C344.144 245.735 342.538 246.257 341.137 246.912C338.293 248.239 323.18 262.73 322.462 265.624C321.412 269.853 324.627 287.343 326.896 290.962C328.068 292.83 332.301 293.158 334.326 293.525C335.163 294.72 336.017 295.975 337.078 296.986C339.941 299.712 372.729 298.391 378.509 298.432C383.185 294.91 391.893 289.245 394.009 283.74C394.645 283.321 395.439 283.333 396.06 282.96C397.429 282.135 397.261 281.023 399.136 280.376L399.844 280.974C401.841 278.529 410.462 260.382 410.348 257.436C412.736 254.65 417.961 255.147 421.457 254.034ZM346.933 308.523C355.894 308.344 422.839 307.235 425.255 309.334C425.49 309.538 425.7 309.769 425.922 309.987C426.138 309.491 426.168 308.911 426.252 308.378C424.8 304.708 423.235 300.34 420.66 297.297C420.165 296.712 419.875 296.412 419.511 295.695C419.142 294.966 419.017 295.03 418.307 294.644C417.158 292.951 416.679 290.595 416.068 288.646C418.195 286.637 420.036 285.482 420.829 282.632C421.182 282.895 421.505 283.205 421.928 283.341L422.613 283.737L423.024 284.5L423.828 284.479L425.263 284.694L426.377 285.386C441.651 279.029 455.404 269.33 470.873 263.273C472.278 264.611 473.873 265.713 475.432 266.862L475.866 267.155L476.572 265.989C476.076 265.634 475.588 265.238 475.117 264.853C473.458 263.497 472.802 262.854 472.61 260.681C472.52 259.655 472.477 259.025 471.966 258.095C468.935 257.699 452.704 267.663 448.647 269.775L448.513 253.835C446.633 253.889 444.293 254.18 442.493 253.6C440.264 252.883 439.001 251.155 436.555 251.151C431.028 251.141 427.291 254.186 421.457 254.034C417.961 255.147 412.736 254.65 410.348 257.436C410.462 260.382 401.841 278.529 399.844 280.974L399.136 280.376C397.261 281.023 397.429 282.135 396.06 282.96C395.439 283.333 394.645 283.321 394.009 283.74C391.893 289.245 383.185 294.91 378.509 298.432C372.729 298.391 339.941 299.712 337.078 296.986C336.017 295.975 335.163 294.72 334.326 293.525C332.301 293.158 328.068 292.83 326.896 290.962C324.627 287.343 321.412 269.853 322.462 265.624C323.18 262.73 338.293 248.239 341.137 246.912C342.538 246.257 344.144 245.735 345.694 245.977C346.231 251.169 333.114 256.194 344.731 273.383C346.364 272.443 348.146 271.265 349.931 270.662C355.171 268.894 362.348 270.847 364.443 263.835C364.92 262.236 365.023 260.43 365.198 258.774C366.912 257.064 368.663 255.445 370.483 253.851C364.534 247.053 360.216 245.063 351.24 244.408C348.883 242.222 345.857 239.149 342.353 239.459C338.556 239.794 332.343 248.132 329.408 250.905C326.797 253.372 323.498 257.283 320.434 259.023C318.619 260.054 315.779 260.033 314.505 261.811C313.526 263.179 313.687 264.808 314.17 266.324C316.119 272.437 321.745 285.181 320.141 291.255C318.868 292.586 318.023 292.571 316.266 292.743C314.616 292.905 313.695 293.613 312.675 294.881C311.906 295.835 312.123 295.323 312.022 296.345C311.925 297.326 312.006 296.943 311.643 297.842C307.685 298.655 303.336 298.034 299.296 298.119C299.326 301.37 298.958 305.304 299.847 308.412C306.158 309.235 312.977 308.433 319.345 308.292C328.516 308.088 337.766 308.229 346.933 308.523Z"/><path fill="#8B4B21" transform="matrix(1.55859 0 0 1.55762 -399.008 0.0078125)" d="M484.912 378.102C485.078 381.955 486.053 383.768 488.185 386.843C490.01 386.22 491.886 385.278 493.813 385.835C497.471 389.421 512.124 425.503 515.139 432.889C522.7 425.181 530.694 417.547 537.478 409.15L549.146 412.578C549.487 413.436 549.752 414.054 549.84 414.981L547.709 418.006C555.272 420.28 593.42 429.52 596.219 433.743C598.15 436.658 588.528 471.596 587.067 477.137C588.229 476.92 589.486 476.757 590.581 476.305C591.722 475.833 591.711 475.626 592.174 474.541C593.112 475.06 593.755 475.41 594.832 475.504L596.879 476.089C603.104 474.019 609.551 472.708 615.787 470.684C616.116 470.002 616.396 469.833 616.981 469.379C626.267 482.135 635.648 494.828 644.377 507.976C634.631 511.465 624.513 514.092 614.549 516.894C614.522 523.393 613.602 553.043 614.799 556.83C614.729 563.602 614.75 570.375 614.862 577.146C614.627 577.56 614.48 578.039 614.156 578.389C612.653 580.011 523.52 605.054 512.757 608.363C493.908 603.359 475.229 597.496 456.49 592.083C440.914 587.584 424.897 583.62 409.673 578.064C409.071 557.783 409.475 537.277 409.655 516.98C399.896 513.839 389.702 511.681 380.14 508.001C388.782 494.949 398.094 481.997 407.806 469.731C398.609 459.434 389.206 449.3 380.187 438.849C384.13 438.141 389.766 437.723 393.183 435.491C392.96 434.508 392.717 433.528 392.454 432.554C397.483 428.918 402.213 424.623 406.973 420.632C409.412 423.224 412.7 426.428 414.12 429.688C421.23 428.222 428.322 425.862 435.298 423.853C433.519 419.202 430.25 413.008 430.668 408.029C431.775 405.908 433.603 404.52 435.608 403.267C441.454 399.611 448.336 396.882 454.518 393.775C464.702 388.657 474.746 383.259 484.912 378.102Z"/><path fill="#E8B786" transform="matrix(1.55859 0 0 1.55762 -399.008 0.0078125)" d="M615.787 470.684C619.459 474.422 622.428 479.327 625.464 483.605C631.085 491.492 636.644 499.424 642.14 507.4C624.531 512.064 607.077 517.49 589.598 522.626C573.308 527.412 556.844 531.918 540.712 537.209C532.615 525.388 522.518 510.792 513.359 499.927C525.538 496.29 537.846 493.086 550.063 489.582C565.683 485.101 581.211 480.404 596.879 476.089C603.104 474.019 609.551 472.708 615.787 470.684Z"/><path fill="#A67147" transform="matrix(1.55859 0 0 1.55762 -399.008 0.0078125)" d="M540.891 417.736C542.991 417.973 546 419.204 547.709 418.006C555.272 420.28 593.42 429.52 596.219 433.743C598.15 436.658 588.528 471.596 587.067 477.137L586.72 475.331L586.406 476.237C583.821 478.797 578.758 479.78 575.335 480.807C565.349 476.51 544.812 469.282 534.351 468.178C546.039 474.344 560.712 476.544 573.172 481.402C564.497 483.607 541.317 492.371 533.881 491.297C531.255 490.918 526.822 489.723 525.522 487.062C523.932 483.808 538.836 425.939 540.891 417.736Z"/><path fill="#8B4B21" transform="matrix(1.55859 0 0 1.55762 -399.008 0.0078125)" d="M545.809 434.301C557.967 436.347 570.55 440.659 582.346 444.239C581.179 453.488 577.591 462.53 577.09 471.858C574.019 470.4 570.256 469.566 566.998 468.516C557.787 465.546 548.484 462.896 539.208 460.141C541.283 451.495 543.288 442.83 545.809 434.301Z"/><path fill="#4C6D88" transform="matrix(1.55859 0 0 1.55762 -399.008 0.0078125)" d="M546.784 435.542C557.888 439.463 569.56 442.333 580.86 445.731C578.504 453.508 577.625 461.697 575.185 469.464C564.068 465.265 552.382 462.411 540.933 459.257C542.629 451.311 544.807 443.425 546.784 435.542Z"/><path fill="#A67147" transform="matrix(1.55859 0 0 1.55762 -399.008 0.0078125)" d="M392.454 432.554C397.483 428.918 402.213 424.623 406.973 420.632C409.412 423.224 412.7 426.428 414.12 429.688C413.809 430.935 413.644 430.962 414.306 432.049C415.779 434.462 417.917 436.664 419.817 438.753L407.001 449.127C404.629 445.687 395.987 433.504 392.454 432.554Z"/><path fill="#CF9362" transform="matrix(1.55859 0 0 1.55762 -399.008 0.0078125)" d="M513.099 502.286C515.911 504.733 518.26 508.713 520.498 511.732C527.164 520.725 533.441 530.027 540.27 538.89C564.427 531.43 588.682 524.287 613.027 517.463L613.021 577.257L606.895 578.936C595.621 582.809 583.951 585.747 572.513 589.106C552.759 595.062 532.964 600.885 513.131 606.574C512.477 571.867 512.793 536.999 513.099 502.286Z"/><path fill="#8B4B21" transform="matrix(1.55859 0 0 1.55762 -399.008 0.0078125)" d="M600.988 555.61C601.91 555.434 602.422 555.398 603.327 555.66C605.44 558.932 604.407 568.494 604.431 572.745C597.616 574.961 590.494 576.551 583.596 578.552C582.601 578.832 582.656 578.916 581.57 578.623C579.35 575.497 580.583 565.067 580.645 560.943C587.344 558.87 594.181 557.284 600.988 555.61Z"/><path fill="#E8B786" transform="matrix(1.55859 0 0 1.55762 -399.008 0.0078125)" d="M511.153 502.853C512.421 508.024 511.497 524.618 511.496 530.881L511.376 606.319L417.879 579.007C415.654 578.404 413.485 577.49 411.326 576.684C410.693 557.083 411.363 537.256 411.452 517.631C418.759 519.211 426.125 521.81 433.317 523.922L483.932 539.021C493.567 527.486 502.08 514.845 511.153 502.853Z"/><path fill="#E8B786" transform="matrix(1.55859 0 0 1.55762 -399.008 0.0078125)" d="M408.88 470.754C413.556 471.596 418.296 473.295 422.892 474.55C433.895 477.476 444.847 480.594 455.741 483.902C474.084 489.381 492.605 494.316 510.85 500.109C502.547 512.666 493.132 524.748 484.021 536.74L483.723 536.943C481.052 537.084 391.347 509.933 382.825 506.985C391.229 494.708 399.916 482.628 408.88 470.754Z"/><path fill="#FAE5B7" transform="matrix(1.55859 0 0 1.55762 -399.008 0.0078125)" d="M491.557 387.403C492.62 387.29 492.726 387.317 493.649 387.714C496.912 392.016 501.447 405.316 503.901 411.006C508.647 422.013 514.121 432.922 518.358 444.13C519.031 445.908 519.452 447.751 519.814 449.612C514.719 454.453 481.573 470.596 473.173 475.055L472.934 475.167C472.705 475.074 472.404 475.077 472.247 474.886C471.187 473.601 470.239 469.235 469.487 467.498L445.096 411.126C451.652 408.253 457.992 404.522 464.344 401.21C473.382 396.544 482.454 391.942 491.557 387.403Z"/><path fill="#CF9362" transform="matrix(1.55859 0 0 1.55762 -399.008 0.0078125)" d="M510.357 456.989C511.843 459.66 511.007 492.752 511.002 498.393C481.091 490.258 451.68 480.184 421.695 472.273C418.675 471.263 415.56 470.441 412.505 469.535C425.168 466.544 437.948 462.817 450.332 458.823C452.694 463.851 454.24 469.316 456.793 474.205C458.669 477.798 460.414 478.625 464.104 479.821C474.318 477.621 500.172 462.691 510.357 456.989Z"/><path fill="#E8B786" transform="matrix(1.55859 0 0 1.55762 -399.008 0.0078125)" d="M434.397 425.557L435.312 425.443C437.879 427.208 448.073 453.265 449.872 457.606C436.199 461.033 422.624 465.021 409.052 468.829C404.418 463.303 399.677 457.868 394.831 452.527C391.094 448.421 387.24 444.381 383.859 439.973C387.531 439.141 391.135 437.935 394.735 436.834C399.141 441.343 402.882 446.836 406.828 451.762C412.028 447.87 416.902 443.271 421.848 439.05C419.986 436.226 417.831 433.733 415.614 431.184C421.871 429.279 428.198 427.66 434.397 425.557Z"/><path fill="#FAE5B7" transform="matrix(1.55859 0 0 1.55762 -399.008 0.0078125)" d="M442.682 412.05C442.742 412.064 442.808 412.062 442.862 412.091C445.327 413.43 468.06 467.819 471 475.452L470.506 476.264C467.767 477.721 464.828 477.584 461.817 477.502C460.685 476.822 459.846 476.125 459.175 474.979C455.453 468.613 453.011 460.721 450.114 453.883C444.384 440.36 438.297 426.977 432.826 413.347C436.773 414.044 439.074 413.492 442.682 412.05Z"/><path fill="#CF9362" transform="matrix(1.55859 0 0 1.55762 -399.008 0.0078125)" d="M520.866 444.874C524.515 446.102 528.307 446.935 532.044 447.855C530.407 455.036 528.712 462.204 526.96 469.357C525.772 474.251 524.032 479.472 523.771 484.499C523.424 491.175 528.147 489.406 531.358 492.888C530.184 493.93 528.65 494.078 527.161 494.403C522.394 495.821 517.603 497.16 512.791 498.418C512.02 484.511 512.573 470.351 512.5 456.408C515.694 454.512 518.611 452.578 521.521 450.263L520.866 444.874Z"/><path fill="#E8B786" transform="matrix(1.55859 0 0 1.55762 -399.008 0.0078125)" d="M537.669 411.335C540.169 411.598 546.171 412.357 547.864 414.199L547.42 415.374C545.277 416.66 542.945 415.743 540.777 416.677C537.951 417.893 534.073 440.847 532.318 445.441C531.068 446.172 530.097 445.654 528.713 445.4C525.716 444.696 522.846 443.773 519.933 442.783C518.357 439.973 517.073 437.167 516.046 434.116C523.45 426.676 530.538 419.029 537.669 411.335Z"/><path fill="#ECF1F8" transform="matrix(1.55859 0 0 1.55762 -399.008 0.0078125)" d="M483.714 383.521C484.756 383.691 486.663 386.902 487.325 387.803C479.398 392.085 471.244 395.97 463.249 400.127C454.99 404.421 446.823 409.181 438.124 412.534C436.843 412.595 436.15 412.65 434.961 412.073C434.665 411.314 434.375 411.1 434.707 410.283C435.415 408.541 437.267 407.375 438.793 406.401C443.519 403.385 448.998 401.06 454.009 398.52L483.714 383.521Z"/><path fill="#8B4B21" transform="matrix(1.55859 0 0 1.55762 -399.008 0.0078125)" d="M481.89 386.512L481.914 387.336C478.374 391.314 448.011 406.052 441.842 409.131L441.774 408.098C442.931 406.765 476.301 389.662 481.89 386.512Z"/><path fill="#ECF1F8" transform="matrix(1.55859 0 0 1.55762 -399.008 0.0078125)" d="M483.086 380.469C483.368 380.661 483.528 380.989 483.736 381.259C481.254 383.299 477.738 384.715 474.883 386.21C468.729 389.466 462.54 392.654 456.316 395.773C450.011 398.875 439.818 402.462 434.731 407.122C433.718 408.049 433.164 409.354 432.615 410.586L432.086 410.565C432.04 409.711 431.923 408.777 432.286 407.968C432.918 406.558 434.564 405.469 435.818 404.68C440.853 401.512 446.581 399.13 451.886 396.431L483.086 380.469Z"/><path fill="#A67147" transform="matrix(1.55859 0 0 1.55762 -399.008 0.0078125)" d="M592.255 226.802L627.493 245.279C632.044 247.663 638.282 250.076 642.259 253.255L642.277 253.912C642.496 254.165 642.72 254.413 642.934 254.67C644.156 256.137 644.701 258.243 644.435 260.144C643.889 264.046 616.055 319.142 611.954 326.225C609.845 324.964 607.929 323.739 605.494 323.199C603.732 323.603 602.371 325.381 600.911 326.506C599.555 326.741 599.072 326.762 597.743 326.264C591.119 323.778 584.449 319.234 578.164 315.848C569.751 311.317 560.627 307.343 552.676 302.058C551.292 301.138 549.136 299.689 548.848 297.964C548.482 295.769 549.399 293.068 550.18 291.045C554.335 280.281 560.52 269.694 565.625 259.309C570.138 250.127 574.575 238.478 580.369 230.324C582.034 230.988 583.566 231.711 585.373 231.805C587.464 229.321 588.827 227.241 592.255 226.802Z"/><path fill="#9F6B47" transform="matrix(1.55859 0 0 1.55762 -399.008 0.0078125)" d="M592.255 226.802L627.493 245.279C632.044 247.663 638.282 250.076 642.259 253.255L642.277 253.912C642.496 254.165 642.72 254.413 642.934 254.67C644.156 256.137 644.701 258.243 644.435 260.144C643.889 264.046 616.055 319.142 611.954 326.225C609.845 324.964 607.929 323.739 605.494 323.199C606.39 323.177 606.861 322.975 607.683 322.652L605.902 321.347C605.677 320.047 605.952 319.053 606.404 317.841C607.724 314.304 609.947 310.876 611.612 307.463C615.726 299.027 619.746 290.527 624.058 282.19C627.452 275.626 633.436 266.901 634.246 259.542C631.684 255.319 593.226 236.872 586.054 233.022L585.373 231.805C587.464 229.321 588.827 227.241 592.255 226.802Z"/><path fill="#ECF1F8" transform="matrix(1.55859 0 0 1.55762 -399.008 0.0078125)" d="M586.054 233.022C587.145 231.923 587.584 231.092 589.141 230.853C597.031 234.7 635.941 254.074 639.835 258.258C637.712 265.012 610.951 319.606 607.683 322.652L605.902 321.347C605.677 320.047 605.952 319.053 606.404 317.841C607.724 314.304 609.947 310.876 611.612 307.463C615.726 299.027 619.746 290.527 624.058 282.19C627.452 275.626 633.436 266.901 634.246 259.542C631.684 255.319 593.226 236.872 586.054 233.022Z"/><path fill="#8B4B21" transform="matrix(1.55859 0 0 1.55762 -399.008 0.0078125)" d="M580.302 247.163C586.961 249.954 593.252 253.882 599.558 257.391C606.725 261.379 614.007 265.151 621.216 269.062C616.857 276.135 613.516 283.826 609.391 291.043L608.941 291.463C600.945 288.516 575.854 275.701 569.52 270.912C573.334 262.988 578.323 255.87 580.302 247.163Z"/><path fill="#FAE5B7" transform="matrix(1.55859 0 0 1.55762 -399.008 0.0078125)" d="M581.617 249.735C594.168 255.912 606.555 262.857 618.683 269.828C614.934 276.07 611.945 282.842 608.448 289.245C605.984 289.295 576.428 273.172 571.933 270.763C574.993 263.696 578.449 256.762 581.617 249.735Z"/><path fill="#A67147" transform="matrix(1.55859 0 0 1.55762 -399.008 0.0078125)" d="M470.873 263.273C472.278 264.611 473.873 265.713 475.432 266.862L475.866 267.155L476.572 265.989C478.104 265.253 479.181 264.819 480.889 264.742C482.359 265.359 482.601 265.55 483.483 266.875C488.567 274.514 492.289 284.307 496.204 292.659C501.025 302.945 506.39 313.302 510.661 323.808C511.58 326.069 512.961 329.548 512.579 331.978C509.166 335.355 472.093 355.005 465.894 357.235C462.997 358.655 460.256 359.985 457.091 360.717C456.485 360.966 455.876 361.236 455.23 361.372C453.387 361.761 451.365 361.201 449.901 360.037C447.337 357.999 426.612 314.574 425.922 309.987C426.138 309.491 426.168 308.911 426.252 308.378C424.8 304.708 423.235 300.34 420.66 297.297C420.165 296.712 419.875 296.412 419.511 295.695C419.142 294.966 419.017 295.03 418.307 294.644C417.158 292.951 416.679 290.595 416.068 288.646C418.195 286.637 420.036 285.482 420.829 282.632C421.182 282.895 421.505 283.205 421.928 283.341L422.613 283.737L423.024 284.5L423.828 284.479L425.263 284.694L426.377 285.386C441.651 279.029 455.404 269.33 470.873 263.273Z"/><path fill="#ECF1F8" transform="matrix(1.55859 0 0 1.55762 -399.008 0.0078125)" d="M470.873 263.273C472.278 264.611 473.873 265.713 475.432 266.862C466.996 271.518 458.171 275.488 449.618 279.93C442.335 283.713 435.002 288.429 427.371 291.404C425.827 292.006 424.788 292.377 423.131 291.932C422.097 291.138 421.928 290.956 421.42 289.76C421.606 288.565 421.811 288.046 422.858 287.345C423.955 286.609 425.209 286.006 426.377 285.386C441.651 279.029 455.404 269.33 470.873 263.273Z"/><path fill="#A4642F" transform="matrix(1.55859 0 0 1.55762 -399.008 0.0078125)" d="M466.994 268.045L467.298 268.383L467.16 269.149C454.976 275.341 442.366 281.039 430.567 287.943L430.093 287.248C431.588 284.385 461.812 270.457 466.994 268.045Z"/><path fill="#8B4B21" transform="matrix(1.55859 0 0 1.55762 -399.008 0.0078125)" d="M457.091 360.717L456.878 360.213C457.967 359.773 459.288 359.395 460.104 358.521C460.55 358.042 460.538 357.433 460.427 356.811C459.816 353.387 457.136 349.047 455.668 345.773C449.672 332.409 443.324 319.188 437.105 305.925C435.246 301.96 431.202 295.634 430.996 291.369L431.701 290.693C433.104 294.577 462.027 355.73 462.737 356.411C463.892 356.577 464.816 356.785 465.894 357.235C462.997 358.655 460.256 359.985 457.091 360.717Z"/><path fill="#8B4B21" transform="matrix(1.55859 0 0 1.55762 -399.008 0.0078125)" d="M480.893 280.973C484.026 284.891 485.833 291.424 487.728 296.101C476.467 302.379 464.767 308.175 453.214 313.91C451.024 309.016 448.799 304.138 446.537 299.277C458.148 293.553 469.409 286.978 480.893 280.973Z"/><path fill="#A67147" transform="matrix(1.55859 0 0 1.55762 -399.008 0.0078125)" d="M479.274 283.468C479.414 283.498 479.561 283.504 479.695 283.556C481.909 284.422 484.974 293.107 486.059 295.591C475.535 300.829 465.231 306.41 454.764 311.751C454.737 311.75 454.708 311.761 454.684 311.749C452.524 310.689 449.621 302.473 448.535 300.052C458.732 294.43 469.093 289.121 479.274 283.468Z"/><path fill="#A4642F" transform="matrix(1.55859 0 0 1.55762 -399.008 0.0078125)" d="M361.07 344.324C361.389 343.733 361.723 343.15 362.071 342.576C369.803 329.878 384.302 322.784 398.256 319.319C399.551 321.19 400.928 322.933 402.377 324.684L401.311 326.485C404.41 330.934 430.217 367.482 430.231 369.817L431.366 370.827C420.319 374.886 408.68 381.446 400.675 390.207L400.437 390.45L399.273 389.906C397.862 391.461 396.765 392.937 395.74 394.77L395.902 395.417C393.335 397.361 389.847 395.899 386.91 397.069L386.262 396.407C384.279 398.064 359.205 407.557 353.46 410.445C341.211 395.134 329.185 378.044 318.001 361.877L316.884 361.829C317.207 359.25 318.224 357.025 319.31 354.703C319.869 354.317 320.418 353.944 321.006 353.603C332.528 346.919 347.672 340.862 361.07 344.324Z"/><path fill="#ECF1F8" transform="matrix(1.55859 0 0 1.55762 -399.008 0.0078125)" d="M362.279 345.493C362.466 345.134 362.661 344.778 362.865 344.428C370.246 331.777 383.813 324.88 397.495 321.158C398.832 322.882 400.055 324.701 401.311 326.485C404.41 330.934 430.217 367.482 430.231 369.817L431.366 370.827C420.319 374.886 408.68 381.446 400.675 390.207L400.437 390.45L399.273 389.906C397.862 391.461 396.765 392.937 395.74 394.77L394.769 394.869C385.055 377.703 374.201 361.207 362.279 345.493Z"/><path fill="#A4642F" transform="matrix(1.55859 0 0 1.55762 -399.008 0.0078125)" d="M430.231 369.817L431.366 370.827C420.319 374.886 408.68 381.446 400.675 390.207L400.437 390.45L399.273 389.906C405.881 380.921 419.865 373.308 430.231 369.817Z"/><path fill="#A4642F" transform="matrix(1.55859 0 0 1.55762 -399.008 0.0078125)" d="M412.747 356.42L413.749 356.767C412.855 359.367 403.493 362.811 400.806 364.641C396.829 367.35 393.508 370.724 390.148 374.136L389.454 374.262L389.121 373.531C391.958 366.182 405.883 359.463 412.747 356.42Z"/><path fill="#A4642F" transform="matrix(1.55859 0 0 1.55762 -399.008 0.0078125)" d="M407.996 348.109C408.272 348.218 408.68 348.614 408.918 348.803C408.181 349.872 399.81 353.126 397.843 354.338C392.964 357.348 388.782 361.318 384.53 365.129C384.245 364.919 383.971 364.494 383.745 364.216C383.973 363.683 384.022 363.501 384.418 362.978C389.337 356.485 400.056 349.581 407.996 348.109Z"/><path fill="#A4642F" transform="matrix(1.55859 0 0 1.55762 -399.008 0.0078125)" d="M419.492 364.567L419.867 364.961C419.373 367.004 414.955 368.246 413.062 369.101C406.061 372.264 399.93 377.669 394.568 383.049L394.155 382.234C394.311 381.573 394.278 381.557 394.649 380.856C397.736 375.024 412.959 366.676 419.492 364.567Z"/><path fill="#A67147" transform="matrix(1.55859 0 0 1.55762 -399.008 0.0078125)" d="M396.846 331.087L397.219 331.398C397.073 332.72 394.032 333.624 392.807 334.223C384.35 338.363 378.771 342.375 372.383 349.33L371.777 348.32C371.847 347.785 371.821 347.751 372.072 347.171C375.03 340.354 390.133 333.424 396.846 331.087Z"/><path fill="#A4642F" transform="matrix(1.55859 0 0 1.55762 -399.008 0.0078125)" d="M401.965 339.59C402.291 340.03 402.127 339.721 402.165 340.62C400.305 342.147 397.685 342.535 395.533 343.659C388.787 347.183 383.576 351.543 378.404 357.091L377.819 355.975C377.998 355.455 378.033 355.268 378.381 354.754C383.078 347.82 393.99 341.576 401.965 339.59Z"/><path fill="#ECF1F8" transform="matrix(1.55859 0 0 1.55762 -399.008 0.0078125)" d="M318.001 361.877C318.513 360.453 318.874 358.679 320.1 357.713C323.187 359.159 351.135 399.997 355.351 406.106C361.991 401.871 377.841 394.642 385.778 396.265C385.943 396.298 386.101 396.359 386.262 396.407C384.279 398.064 359.205 407.557 353.46 410.445C341.211 395.134 329.185 378.044 318.001 361.877Z"/><path fill="#ECF1F8" transform="matrix(1.55859 0 0 1.55762 -399.008 0.0078125)" d="M353.369 344.734C354.788 344.625 356.465 344.615 357.852 344.942C359.418 345.312 360.583 346.298 361.638 347.449C367.289 353.615 371.698 361.601 376.263 368.629C382.142 377.678 388.237 386.599 393.893 395.79C381.19 393.715 373.129 395.866 361.351 400.853L355.683 403.759C343.168 388.589 333.819 370.664 320.859 355.81C330.343 349.491 342.027 345.577 353.369 344.734Z"/><path fill="#A4642F" transform="matrix(1.55859 0 0 1.55762 -399.008 0.0078125)" d="M366.618 369.171C366.772 369.139 366.925 369.096 367.081 369.074C368.545 368.876 369.523 369.325 370.666 370.181C369.525 371.409 364.717 371.576 362.753 371.923C357.631 372.828 352.974 374.359 348.27 376.558C346.636 377.4 346.114 377.892 344.25 377.703L344.029 377.053C349.223 372.418 359.864 370.186 366.618 369.171Z"/><path fill="#A4642F" transform="matrix(1.55859 0 0 1.55762 -399.008 0.0078125)" d="M354.817 352.671C356.483 352.433 357.691 352.451 359.103 353.445C356.181 355.372 349.412 355.39 345.787 356.47C342.552 357.433 339.597 359.061 336.621 360.622C335.729 361.222 335.036 361.62 333.999 361.913L333.118 361.243L333.321 360.364C339.227 355.75 347.532 353.759 354.817 352.671Z"/><path fill="#A4642F" transform="matrix(1.55859 0 0 1.55762 -399.008 0.0078125)" d="M370.663 378.188C372.519 378.067 373.952 378.204 375.749 378.684L375.959 379.257C372.982 380.929 367.559 380.443 364.02 381.255C360.634 382.033 357.817 383.302 354.741 384.853C353.175 385.931 352.553 386.475 350.598 386.195L350.307 385.564C354.511 381.157 364.775 378.837 370.663 378.188Z"/><path fill="#A4642F" transform="matrix(1.55859 0 0 1.55762 -399.008 0.0078125)" d="M359.316 361.144C360.485 360.99 361.702 360.773 362.882 360.858C364.009 360.939 364.069 360.874 364.866 361.742C364.357 362.771 362.337 362.554 361.207 362.683C354.821 363.412 349.348 365.486 343.473 368.021C342.064 368.725 340.34 369.913 338.79 369.696L338.651 368.598C343.231 364.521 353.342 362.18 359.316 361.144Z"/><path fill="#A4642F" transform="matrix(1.55859 0 0 1.55762 -399.008 0.0078125)" d="M374.524 386.645C375.745 386.553 377.021 386.408 378.246 386.469C379.21 386.517 381.316 386.491 381.966 387.213C375.479 389.582 368.87 388.904 362.348 392.009C360.94 392.804 359.656 393.953 358.041 393.646L358.34 394.054L357.53 393.83C357.596 393.698 357.646 393.557 357.728 393.434C360.398 389.448 370.041 387.388 374.524 386.645Z"/><path fill="#A4642F" transform="matrix(1.55859 0 0 1.55762 -399.008 0.0078125)" d="M335.005 449.654C337.201 451.872 338.024 452.594 341.234 453.108C346.771 459.024 351.164 466.29 355.805 472.918C360.568 479.721 365.632 486.251 370.092 493.264C364.515 496.24 352.75 503.495 347.484 505.249C345.838 506.299 343.951 507.35 342.509 508.666C340.12 510.846 338.488 514.113 335.295 515.155L332.713 515.975C331.961 516.207 332.211 516.03 331.811 516.437C330.496 515.93 329.088 515.547 327.744 515.112C323.772 517.585 303.428 526.771 299.454 527.265C295.532 525.611 272.058 493.039 267.525 486.998C267.955 486.552 268.375 486.099 268.8 485.648C270.519 483.823 271.635 482.162 272.826 479.978C272.934 479.807 273.032 479.629 273.15 479.465C276.656 474.603 289.163 470.175 295.011 469.377C297.384 468.346 299.945 468.014 302.362 467.129C304.049 466.512 304.982 465.825 305.778 464.177C305.795 463.139 305.802 462.206 305.986 461.183C306.172 460.151 306.129 460.794 306.068 459.551C307.26 460.517 307.254 460.916 307.697 462.342C307.503 463.285 307.308 464.167 307.015 465.086L308.527 464.864L307.184 465.36C308.366 465.097 308.456 464.84 309.418 464.26C309.564 464.173 309.731 464.126 309.887 464.059L312.203 461.985C319.083 455.739 326.138 452.127 335.005 449.654Z"/><path fill="#ECF1F8" transform="matrix(1.55859 0 0 1.55762 -399.008 0.0078125)" d="M307.251 470.377C313.764 460.308 322.97 454.878 334.259 451.412C343.822 461.588 352.804 476.114 361.053 487.699C351.512 491.503 344.751 496.4 337.563 503.631C336.756 504.659 335.215 507.111 333.941 507.33C333.653 507.38 333.359 507.372 333.069 507.393C331.164 502.208 312.072 476.622 307.251 470.377Z"/><path fill="#A4642F" transform="matrix(1.55859 0 0 1.55762 -399.008 0.0078125)" d="M347.274 478.461C348.123 478.446 347.634 478.388 348.71 478.812C347.095 480.786 342.683 481.914 340.337 483.338C336.599 485.607 333.479 488.65 330.31 491.632L329.483 492.216L329.08 491.858C329.123 491.704 329.15 491.546 329.208 491.397C331.663 485.096 341.405 480.627 347.274 478.461Z"/><path fill="#A67147" transform="matrix(1.55859 0 0 1.55762 -399.008 0.0078125)" d="M333.961 458.61L334.224 458.97C333.15 461.135 327.564 462.832 325.35 464.258C321.595 466.677 318.676 469.789 315.807 473.173L315.107 472.435C315.245 471.767 315.229 471.666 315.588 470.962C318.664 464.942 328.041 460.98 333.961 458.61Z"/><path fill="#A4642F" transform="matrix(1.55859 0 0 1.55762 -399.008 0.0078125)" d="M341.643 471.964C342.172 471.963 342.626 472.101 343.138 472.224C341.611 474.013 337.991 474.78 335.869 476.075C331.79 478.564 328.415 481.833 325.043 485.182C324.413 485.511 324.789 485.425 323.886 485.22L323.94 484.31C328.635 478.31 334.608 474.654 341.643 471.964Z"/><path fill="#A4642F" transform="matrix(1.55859 0 0 1.55762 -399.008 0.0078125)" d="M352.421 484.062C352.809 484.419 352.611 484.16 352.756 484.982C345.557 488.78 340.068 492.997 334.218 498.628L333.7 498.077C333.76 497.567 333.737 497.454 334.007 496.927C336.416 492.225 347.4 485.757 352.421 484.062Z"/><path fill="#A4642F" transform="matrix(1.55859 0 0 1.55762 -399.008 0.0078125)" d="M337.217 464.859C337.82 464.956 337.462 464.846 338.208 465.385C336.349 467.841 330.98 469.979 328.28 472.018C325.478 474.133 323.096 476.554 320.712 479.12L320.104 479.233L319.79 478.538C323.225 472.523 331.209 467.926 337.217 464.859Z"/><path fill="#ECF1F8" transform="matrix(1.55859 0 0 1.55762 -399.008 0.0078125)" d="M275.736 479.19C282.413 474.904 294.079 469.838 302.186 470.849C303.789 471.049 305.392 471.574 306.627 472.649C310.392 475.931 313.305 481.288 316.132 485.386C321.332 492.925 326.432 500.696 332.229 507.788C330.105 509.412 326.346 508.505 323.826 509.336C316.403 509.537 309.42 512.353 303.112 516.057C293.645 504.089 284.252 491.854 275.736 479.19Z"/><path fill="#A67147" transform="matrix(1.55859 0 0 1.55762 -399.008 0.0078125)" d="M311.902 496.105C314.164 495.917 316.616 495.357 318.546 496.657L318.998 496.41C314.821 498.469 309.577 498.811 305.153 500.652L304.361 500.987C302.859 501.777 301.877 502.691 300.164 503.157L299.517 502.715C299.584 502.579 299.636 502.435 299.719 502.309C301.993 498.827 308.13 497.195 311.902 496.105Z"/><path fill="#A67147" transform="matrix(1.55859 0 0 1.55762 -399.008 0.0078125)" d="M307.252 482.654C308.301 482.642 308.405 482.496 309.324 483.102C308.084 484.067 295.785 487.294 291.613 489.535C290.649 490.126 290.86 490.228 289.644 490.007C289.626 489.232 289.471 489.199 289.892 488.654C292.364 485.453 303.21 483.153 307.252 482.654Z"/><path fill="#A4642F" transform="matrix(1.55859 0 0 1.55762 -399.008 0.0078125)" d="M304.16 476.195L305.062 476.203L305.329 476.669C303.422 478.317 296.781 478.905 294.075 479.75C290.991 480.714 288.128 482.165 285.248 483.611L284.457 483.489L284.163 482.864C288.743 478.443 298.117 476.961 304.16 476.195Z"/><path fill="#A67147" transform="matrix(1.55859 0 0 1.55762 -399.008 0.0078125)" d="M313.203 488.731L313.686 488.801L314.078 489.815C312.659 491.139 308.526 490.859 306.475 491.33C302.179 492.316 298.003 494.527 294.215 496.73L293.672 496.779L293.574 496.105C298.619 491.316 306.536 489.626 313.203 488.731Z"/><path fill="#A67147" transform="matrix(1.55859 0 0 1.55762 -399.008 0.0078125)" d="M319.439 502.689C320.55 502.573 321.36 502.598 322.453 502.83C322.35 502.997 322.306 503.22 322.144 503.332C321.417 503.832 318.749 504.064 317.684 504.298C313.783 505.158 310.262 506.049 306.609 507.71C305.703 508.233 305.25 508.398 304.199 508.38L304.261 507.475C307.912 504.395 314.766 503.214 319.439 502.689Z"/><path fill="#A67147" transform="matrix(1.55859 0 0 1.55762 -399.008 0.0078125)" d="M272.826 479.978L273.475 482.275L274.835 481.268C277.012 482.033 298.637 513.187 302.686 517.712C309.308 514.258 315.068 512.211 322.374 510.876L323.337 510.117L324.172 511.839C327.512 512.945 330.8 511.846 333.779 510.348C334.94 509.764 336.09 509.231 337.293 508.735L337.908 509.051C337.613 510.342 336.854 511.397 335.791 512.188C332.999 514.266 329.954 511.582 327.744 515.112C323.772 517.585 303.428 526.771 299.454 527.265C295.532 525.611 272.058 493.039 267.525 486.998C267.955 486.552 268.375 486.099 268.8 485.648C270.519 483.823 271.635 482.162 272.826 479.978Z"/><path fill="#ECF1F8" transform="matrix(1.55859 0 0 1.55762 -399.008 0.0078125)" d="M273.475 482.275L274.835 481.268C277.012 482.033 298.637 513.187 302.686 517.712C309.308 514.258 315.068 512.211 322.374 510.876L322.621 511.18C320.522 513.54 304.705 519.945 301.077 521.514C293.168 512.176 285.906 501.703 278.415 491.981C276.199 489.106 272.986 486.036 273.475 482.275Z"/><path fill="#9F6B47" transform="matrix(1.55859 0 0 1.55762 -399.008 0.0078125)" d="M354.134 496.32C351.554 500.02 345.687 500.413 343.154 503.739L344.282 504.052C343.815 505.006 343.323 505.581 342.653 506.401C344.277 506.57 345.882 505.607 347.484 505.249C345.838 506.299 343.951 507.35 342.509 508.666C340.12 510.846 338.488 514.113 335.295 515.155L332.713 515.975C331.961 516.207 332.211 516.03 331.811 516.437C330.496 515.93 329.088 515.547 327.744 515.112C329.954 511.582 332.999 514.266 335.791 512.188C336.854 511.397 337.613 510.342 337.908 509.051L337.293 508.735C336.09 509.231 334.94 509.764 333.779 510.348C330.8 511.846 327.512 512.945 324.172 511.839L323.337 510.117L323.826 509.336C326.346 508.505 330.105 509.412 332.229 507.788L333.069 507.393C333.359 507.372 333.653 507.38 333.941 507.33C335.215 507.111 336.756 504.659 337.563 503.631L339.17 504.278C343.666 503.046 349.617 498.473 354.134 496.32Z"/><path fill="#ECF1F8" transform="matrix(1.55859 0 0 1.55762 -399.008 0.0078125)" d="M339.17 504.278C339.686 503.647 340.21 503.039 340.763 502.44C344.95 497.901 355.387 489.686 361.513 489.436C362.509 490.203 362.467 490.211 362.716 491.45C361.007 493.405 356.532 494.931 354.134 496.32C349.617 498.473 343.666 503.046 339.17 504.278Z"/><path fill="#ECF1F8" transform="matrix(1.55859 0 0 1.55762 -399.008 0.0078125)" d="M306.068 459.551C307.26 460.517 307.254 460.916 307.697 462.342C307.503 463.285 307.308 464.167 307.015 465.086L308.527 464.864L307.184 465.36C308.366 465.097 308.456 464.84 309.418 464.26C309.564 464.173 309.731 464.126 309.887 464.059L305.904 469.485C302.189 468.959 298.733 469.25 295.011 469.377C297.384 468.346 299.945 468.014 302.362 467.129C304.049 466.512 304.982 465.825 305.778 464.177C305.795 463.139 305.802 462.206 305.986 461.183C306.172 460.151 306.129 460.794 306.068 459.551Z"/><path fill="#ECF1F8" transform="matrix(1.55859 0 0 1.55762 -399.008 0.0078125)" d="M364.636 492.992C365.196 490.219 363.052 487.796 361.556 485.544C357.322 479.172 342.222 460.439 340.086 455.241L340.295 454.638C340.567 454.735 340.867 454.774 341.11 454.929C341.657 455.277 365.379 488.332 367.042 491.288L367.068 492.273C366.384 492.743 365.743 493.179 365.006 493.564L364.636 492.992Z"/><path fill="#CF9362" transform="matrix(1.55859 0 0 1.55762 -399.008 0.0078125)" d="M365.006 493.564C363.144 494.748 360.142 497.13 357.935 496.87C359.418 494.853 362.397 493.912 364.636 492.992L365.006 493.564Z"/><path fill="#A4642F" transform="matrix(1.55859 0 0 1.55762 -399.008 0.0078125)" d="M299.296 298.119C303.336 298.034 307.685 298.655 311.643 297.842C312.006 296.943 311.925 297.326 312.022 296.345C312.123 295.323 311.906 295.835 312.675 294.881C313.695 293.613 314.616 292.905 316.266 292.743C318.023 292.571 318.868 292.586 320.141 291.255C321.745 285.181 316.119 272.437 314.17 266.324C313.687 264.808 313.526 263.179 314.505 261.811C315.779 260.033 318.619 260.054 320.434 259.023C323.498 257.283 326.797 253.372 329.408 250.905C332.343 248.132 338.556 239.794 342.353 239.459C345.857 239.149 348.883 242.222 351.24 244.408C360.216 245.063 364.534 247.053 370.483 253.851C368.663 255.445 366.912 257.064 365.198 258.774C365.023 260.43 364.92 262.236 364.443 263.835C362.348 270.847 355.171 268.894 349.931 270.662C348.146 271.265 346.364 272.443 344.731 273.383C333.114 256.194 346.231 251.169 345.694 245.977C344.144 245.735 342.538 246.257 341.137 246.912C338.293 248.239 323.18 262.73 322.462 265.624C321.412 269.853 324.627 287.343 326.896 290.962C328.068 292.83 332.301 293.158 334.326 293.525C335.163 294.72 336.017 295.975 337.078 296.986C339.941 299.712 372.729 298.391 378.509 298.432C383.185 294.91 391.893 289.245 394.009 283.74C394.645 283.321 395.439 283.333 396.06 282.96C397.429 282.135 397.261 281.023 399.136 280.376L399.844 280.974C401.841 278.529 410.462 260.382 410.348 257.436C412.736 254.65 417.961 255.147 421.457 254.034C427.291 254.186 431.028 251.141 436.555 251.151C439.001 251.155 440.264 252.883 442.493 253.6C444.293 254.18 446.633 253.889 448.513 253.835L448.647 269.775C452.704 267.663 468.935 257.699 471.966 258.095C472.477 259.025 472.52 259.655 472.61 260.681C472.802 262.854 473.458 263.497 475.117 264.853C475.588 265.238 476.076 265.634 476.572 265.989L475.866 267.155L475.432 266.862C473.873 265.713 472.278 264.611 470.873 263.273C455.404 269.33 441.651 279.029 426.377 285.386L425.263 284.694L423.828 284.479L423.024 284.5L422.613 283.737L421.928 283.341C421.505 283.205 421.182 282.895 420.829 282.632C420.036 285.482 418.195 286.637 416.068 288.646C416.679 290.595 417.158 292.951 418.307 294.644C419.017 295.03 419.142 294.966 419.511 295.695C419.875 296.412 420.165 296.712 420.66 297.297C423.235 300.34 424.8 304.708 426.252 308.378C426.168 308.911 426.138 309.491 425.922 309.987C425.7 309.769 425.49 309.538 425.255 309.334C422.839 307.235 355.894 308.344 346.933 308.523C337.766 308.229 328.516 308.088 319.345 308.292C312.977 308.433 306.158 309.235 299.847 308.412C298.958 305.304 299.326 301.37 299.296 298.119ZM354.864 264.613C359.454 260.776 363.92 256.669 369.207 253.807C362.834 248.711 358.688 246.704 350.379 247.087C346.291 249.586 343.897 251.935 342.848 256.797C342.174 259.923 341.856 266.371 344.213 268.945C345.025 269.83 345.865 270.013 347.016 269.869C349.341 269.577 353.117 266.138 354.864 264.613ZM330.963 297.977L331.91 297.818L332.163 297.993L332.55 297.385C329.631 295.512 318.907 294.737 315.313 294.989C314.6 296.179 313.919 296.67 314.233 298.079C318.008 300.887 325.747 298.744 330.195 298.09L330.963 297.977Z"/><path fill="#ECF1F8" transform="matrix(1.55859 0 0 1.55762 -399.008 0.0078125)" d="M403.295 298.401C409.612 286.269 415.052 273.56 420.958 261.209C421.054 268.344 420.892 275.496 420.829 282.632C420.036 285.482 418.195 286.637 416.068 288.646C416.679 290.595 417.158 292.951 418.307 294.644C418.744 295.877 419.297 297.045 419.146 298.376C413.972 298.911 408.501 298.48 403.295 298.401Z"/><path fill="#ECF1F8" transform="matrix(1.55859 0 0 1.55762 -399.008 0.0078125)" d="M422.539 255.401C424.976 255.219 427.42 254.987 429.863 254.923C429.903 263.089 429.894 271.255 429.834 279.421C427.437 280.815 424.872 282.138 422.613 283.737L421.928 283.341C423.813 274.708 422.254 264.281 422.539 255.401Z"/><path fill="#ECF1F8" transform="matrix(1.55859 0 0 1.55762 -399.008 0.0078125)" d="M394.009 283.74C394.645 283.321 395.439 283.333 396.06 282.96C397.429 282.135 397.261 281.023 399.136 280.376L399.844 280.974C397.869 285.363 395.797 289.709 393.63 294.007L401.442 298.559C394.045 298.581 385.821 299.319 378.509 298.432C383.185 294.91 391.893 289.245 394.009 283.74Z"/><path fill="#C2B9B8" transform="matrix(1.55859 0 0 1.55762 -399.008 0.0078125)" d="M423.828 284.479C431.412 280.143 463.244 262.707 469.586 261.176L469.801 261.51C463.98 265.543 456.756 268.554 450.427 271.794C442.068 276.074 433.767 280.735 425.263 284.694L423.828 284.479Z"/><path fill="#ECF1F8" transform="matrix(1.55859 0 0 1.55762 -399.008 0.0078125)" d="M301.698 299.996C341.317 299.934 380.936 300.091 420.553 300.468L423.45 306.566C382.812 306.467 342.174 306.585 301.538 306.921L301.698 299.996Z"/><path fill="#ECF1F8" transform="matrix(1.55859 0 0 1.55762 -399.008 0.0078125)" d="M413.571 257.003C415.754 257.579 417.975 258.102 419.497 259.878C419.615 263.145 404.929 291.713 402.299 296.843C400.088 295.684 397.96 294.343 395.816 293.064C401.454 281.694 406.663 267.371 413.571 257.003Z"/><path fill="#ECF1F8" transform="matrix(1.55859 0 0 1.55762 -399.008 0.0078125)" d="M436.208 252.692L437.903 253.071C439.947 255.407 438.644 270.967 438.529 274.659L433.685 277.296C433.125 277.601 432.791 277.617 432.167 277.682C430.494 274.743 431.519 257.944 431.722 253.657C432.897 252.656 434.729 252.803 436.208 252.692Z"/><path fill="#ECF1F8" transform="matrix(1.55859 0 0 1.55762 -399.008 0.0078125)" d="M440.227 255.383L447.185 255.514C447.087 259.894 447.976 264.739 447.266 269.038C446.982 270.754 446.388 270.833 445.059 271.677L440.22 274.053C440.63 267.851 440.34 261.594 440.227 255.383Z"/><path fill="#ECF1F8" transform="matrix(1.55859 0 0 1.55762 -399.008 0.0078125)" d="M318.43 269.148C319.093 269.355 319.471 269.576 320.048 269.945C322.44 277.486 323.641 285.709 325.216 293.47L323.599 292.845C321.219 289.007 318.367 273.804 318.43 269.148Z"/><path fill="#ECF1F8" transform="matrix(1.55859 0 0 1.55762 -399.008 0.0078125)" d="M341.432 240.707C341.986 240.974 341.641 240.769 342.35 241.487C337.26 249.581 329.324 255.22 322.374 261.616L321.984 261.45L321.711 260.75C326.568 255.214 335.067 249.337 338.803 243.481C339.566 242.285 340.304 241.561 341.432 240.707Z"/><path fill="#ECF1F8" transform="matrix(1.55859 0 0 1.55762 -399.008 0.0078125)" d="M362.472 260.488C362.929 260.948 362.994 261.45 363.076 262.099C363.244 263.432 362.867 264.701 361.976 265.712C359.823 268.155 357.771 268.526 354.667 268.576C354.207 267.866 354.387 268.3 354.293 267.215C356.677 264.661 359.696 262.607 362.472 260.488Z"/><path fill="#ECF1F8" transform="matrix(1.55859 0 0 1.55762 -399.008 0.0078125)" d="M317.269 261.788C318.35 261.328 319.596 261.488 320.526 262.207C321.457 262.925 321.926 264.091 321.754 265.253C321.581 266.416 320.794 267.395 319.695 267.813C318.041 268.442 316.189 267.632 315.528 265.991C314.867 264.349 315.641 262.481 317.269 261.788Z"/><path fill="#ECF1F8" transform="matrix(1.55859 0 0 1.55762 -399.008 0.0078125)" d="M637.956 342.135C653.663 347.334 664.755 355.09 674.337 368.521C666.403 379.409 658.624 390.409 651.002 401.517C647.192 407.102 643.55 414.121 638.938 419.009C637.307 417.002 635.652 415.015 633.971 413.049C625.138 403.23 614.717 397.08 602.753 391.869C609.296 381.924 616.544 372.42 623.35 362.651C627.99 355.991 632.499 348.095 637.956 342.135Z"/><path fill="#A4642F" transform="matrix(1.55859 0 0 1.55762 -399.008 0.0078125)" d="M619.056 378.464C620.306 378.451 621.156 378.649 622.328 379.118C629.951 382.167 643.127 390.523 646.467 398.21C642.425 396.907 638.2 390.84 634.669 388.083C630.134 384.54 622.648 382.897 619.056 378.464Z"/><path fill="#A4642F" transform="matrix(1.55859 0 0 1.55762 -399.008 0.0078125)" d="M613.372 387.147C615.716 387.645 618.031 388.537 620.236 389.466C627.491 392.522 637.139 399.264 640.251 406.745C640.084 406.703 639.911 406.682 639.751 406.619C637.413 405.692 628.277 395.053 620.719 391.722C618.402 390.701 614.468 389.581 613.372 387.147Z"/><path fill="#A4642F" transform="matrix(1.55859 0 0 1.55762 -399.008 0.0078125)" d="M624.983 369.988C625.377 370.01 625.947 370.023 626.356 370.102C635.692 371.886 647.062 381.294 652.675 388.686C648.144 387.761 643.6 380.973 639.615 378.384C635.527 375.728 627.623 373.969 624.983 369.988Z"/><path fill="#A4642F" transform="matrix(1.55859 0 0 1.55762 -399.008 0.0078125)" d="M637.204 352.981C641.957 353.109 647.39 356.738 651.274 359.353C655.219 362.009 663.718 367.77 664.642 372.622C661.087 371.306 654.916 363.761 651.073 361.089C646.875 358.17 640.655 356.664 637.204 352.981Z"/><path fill="#A4642F" transform="matrix(1.55859 0 0 1.55762 -399.008 0.0078125)" d="M631.684 361.534C632.355 361.488 632.882 361.557 633.545 361.709C641.969 363.644 653.654 373.179 658.324 380.208C653.574 379.313 648.423 371.734 644.257 368.932C640.355 366.308 634.993 364.856 631.684 361.534Z"/><path fill="#ECF1F8" transform="matrix(1.55859 0 0 1.55762 -399.008 0.0078125)" d="M675.641 369.537C676.508 369.3 677.366 369.101 678.253 368.95C690.353 366.89 708.368 374.651 717.962 381.425L716.825 382.894C710.004 391.391 703.234 399.93 696.516 408.508C691.093 415.386 685.296 422.183 680.893 429.777C671.017 425.584 659.171 419.816 648.199 420.498C645.906 420.48 641.855 420.961 639.87 419.822C652.027 403.575 662.945 385.026 675.641 369.537Z"/><path fill="#A4642F" transform="matrix(1.55859 0 0 1.55762 -399.008 0.0078125)" d="M664.513 394.208C669.659 392.835 678.276 395.828 683.142 397.684C686.552 398.985 690.911 400.628 692.47 404.067C690.139 403.621 687.701 402.034 685.518 401.075C681.639 399.372 677.569 397.862 673.441 396.887C670.89 396.285 666.294 395.991 664.513 394.208Z"/><path fill="#A4642F" transform="matrix(1.55859 0 0 1.55762 -399.008 0.0078125)" d="M677.452 376.628C684.328 375.964 695.012 379.928 701.148 382.911C703.153 383.886 705.688 384.815 706.437 386.994C701.578 386.193 696.487 382.912 691.824 381.142C687.29 379.422 682.555 378.752 677.802 377.908L677.452 376.628Z"/><path fill="#A4642F" transform="matrix(1.55859 0 0 1.55762 -399.008 0.0078125)" d="M671.057 385.693C671.714 385.556 672.314 385.44 672.988 385.434C679.763 385.367 694.919 389.734 699.59 394.532C699.327 394.543 699.064 394.563 698.801 394.564C696.654 394.578 683.374 388.922 678.584 387.987C676.055 387.493 672.833 387.578 671.057 385.693Z"/><path fill="#A4642F" transform="matrix(1.55859 0 0 1.55762 -399.008 0.0078125)" d="M652.833 411.729C654.637 411.453 656.344 411.387 658.166 411.523C664.202 411.972 675.254 414.784 679.308 419.549C679.111 419.57 678.916 419.615 678.719 419.613C676.604 419.59 666.101 415.17 662.758 414.333C660.748 413.83 655.483 413.525 654.057 412.761C653.587 412.509 653.241 412.073 652.833 411.729Z"/><path fill="#A4642F" transform="matrix(1.55859 0 0 1.55762 -399.008 0.0078125)" d="M658.623 403.21C659.495 403.018 660.34 402.846 661.238 402.868C669.084 403.061 681.012 406.527 686.708 412.065C683.471 411.938 678.423 408.997 675.259 407.878C672.12 406.768 660.342 404.582 659.606 404.225C659.182 404.02 658.951 403.548 658.623 403.21Z"/><defs><linearGradient id="gradient_0" gradientUnits="userSpaceOnUse" x1="592.20502" y1="474.80701" x2="595.758" y2="414.02899"><stop offset="0" stop-color="#7B3E18"/><stop offset="1" stop-color="#A46E47"/></linearGradient></defs><path fill="url(#gradient_0)" transform="matrix(1.55859 0 0 1.55762 -399.008 0.0078125)" d="M549.146 412.578C549.928 411.676 550.461 410.54 551.801 410.62C554.923 410.805 596.649 423.386 600.89 425.054C603.853 426.219 605.676 429.162 608.561 430.182C619.29 433.976 631.722 436.067 642.788 439.524C639.077 444.536 620.826 467.135 616.981 469.379C616.396 469.833 616.116 470.002 615.787 470.684C609.551 472.708 603.104 474.019 596.879 476.089L594.832 475.504C593.755 475.41 593.112 475.06 592.174 474.541C591.711 475.626 591.722 475.833 590.581 476.305C589.486 476.757 588.229 476.92 587.067 477.137C588.528 471.596 598.15 436.658 596.219 433.743C593.42 429.52 555.272 420.28 547.709 418.006L549.84 414.981C549.752 414.054 549.487 413.436 549.146 412.578Z"/><path fill="#ECF1F8" transform="matrix(1.55859 0 0 1.55762 -399.008 0.0078125)" d="M549.84 414.981C556.13 416.103 562.771 418.83 568.947 420.622C578.763 423.47 590.083 425.845 599.414 429.572C600.518 430.013 601.362 430.496 602.149 431.409C600.114 437.601 599.002 444.383 597.549 450.747C595.752 458.615 593.575 466.601 592.174 474.541C591.711 475.626 591.722 475.833 590.581 476.305C589.486 476.757 588.229 476.92 587.067 477.137C588.528 471.596 598.15 436.658 596.219 433.743C593.42 429.52 555.272 420.28 547.709 418.006L549.84 414.981Z"/><path fill="#A67147" transform="matrix(1.55859 0 0 1.55762 -399.008 0.0078125)" d="M602.149 431.409L603.742 430.101L604.41 430.3C605.575 432.941 596.662 470.711 594.832 475.504C593.755 475.41 593.112 475.06 592.174 474.541C593.575 466.601 595.752 458.615 597.549 450.747C599.002 444.383 600.114 437.601 602.149 431.409Z"/><path fill="#E8B786" transform="matrix(1.55859 0 0 1.55762 -399.008 0.0078125)" d="M606.788 431.286C617.817 434.44 628.871 437.506 639.949 440.484C635.025 447.222 629.262 453.483 623.812 459.797C621.117 462.922 618.519 466.143 615.877 469.314C610.502 467.297 604.842 465.823 599.331 464.216C602.196 453.534 605.06 442.206 606.788 431.286Z"/><path fill="#CF9362" transform="matrix(1.55859 0 0 1.55762 -399.008 0.0078125)" d="M599.193 466.358C603.256 466.624 608.398 468.145 612.157 469.643L612.139 469.942L608.375 471.106C604.683 472.138 600.971 473.097 597.241 473.982L599.193 466.358Z"/><path fill="#A67147" transform="matrix(1.55859 0 0 1.55762 -399.008 0.0078125)" d="M719.301 380.891C721.027 385.391 722.962 388.541 726.199 392.109C722.886 396.75 706.233 416.934 706.023 420.529L705.316 420.039C698.786 425.735 692.278 438.059 685.218 444.986C677.832 442.06 660.629 436.239 654.795 432.181L655.029 431.785C652.931 430.734 650.426 429.142 648.17 428.575C644.095 427.552 639.401 428.508 635.705 426.031C633.227 424.371 633.051 422.235 632.495 419.508C632.428 419.177 632.348 418.849 632.275 418.519L632.915 417.282L634.051 416.49L633.059 414.596L632.864 414.136L633.971 413.049C635.652 415.015 637.307 417.002 638.938 419.009L639.87 419.822C641.855 420.961 645.906 420.48 648.199 420.498C659.171 419.816 671.017 425.584 680.893 429.777C685.296 422.183 691.093 415.386 696.516 408.508C703.234 399.93 710.004 391.391 716.825 382.894L717.962 381.425L719.301 380.891Z"/><path fill="#ECF1F8" transform="matrix(1.55859 0 0 1.55762 -399.008 0.0078125)" d="M716.825 382.894L717.813 384.381C718.652 385.658 719.683 387.55 719.461 389.151C719.204 391.004 686.867 432.253 683.101 437.136C675.363 433.232 667.465 430.069 659.412 426.891C655.665 425.412 650.887 424.142 647.509 422.072L646.488 421.764L648.199 420.498C659.171 419.816 671.017 425.584 680.893 429.777C685.296 422.183 691.093 415.386 696.516 408.508C703.234 399.93 710.004 391.391 716.825 382.894Z"/><path fill="#A67147" transform="matrix(1.55859 0 0 1.55762 -399.008 0.0078125)" d="M716.825 382.894L717.813 384.381C709.11 394.052 701.198 404.712 693.422 415.129C689.419 420.491 684.85 425.902 681.825 431.895C670.775 427.256 659.749 422.006 647.509 422.072L646.488 421.764L648.199 420.498C659.171 419.816 671.017 425.584 680.893 429.777C685.296 422.183 691.093 415.386 696.516 408.508C703.234 399.93 710.004 391.391 716.825 382.894Z"/><path fill="#8B4B21" transform="matrix(1.55859 0 0 1.55762 -399.008 0.0078125)" d="M633.971 413.049C635.652 415.015 637.307 417.002 638.938 419.009L639.87 419.822C641.855 420.961 645.906 420.48 648.199 420.498L646.488 421.764L646.049 422.357C644.053 423.221 640.152 422.535 637.929 422.446C636.557 420.499 635.169 418.599 634.051 416.49L633.059 414.596L632.864 414.136L633.971 413.049Z"/><path fill="#A4642F" transform="matrix(1.55859 0 0 1.55762 -399.008 0.0078125)" d="M637.473 340.069C653.405 345.328 666.249 353.629 675.527 367.721C682.858 366.275 688.704 367.398 695.77 369.377C698.036 370.012 700.237 370.762 702.6 370.91C708.316 373.134 715.721 375.635 719.301 380.891L717.962 381.425C708.368 374.651 690.353 366.89 678.253 368.95C677.366 369.101 676.508 369.3 675.641 369.537C662.945 385.026 652.027 403.575 639.87 419.822L638.938 419.009C643.55 414.121 647.192 407.102 651.002 401.517C658.624 390.409 666.403 379.409 674.337 368.521C664.755 355.09 653.663 347.334 637.956 342.135C632.499 348.095 627.99 355.991 623.35 362.651C616.544 372.42 609.296 381.924 602.753 391.869C614.717 397.08 625.138 403.23 633.971 413.049L632.864 414.136L633.059 414.596L634.051 416.49L632.915 417.282L632.275 418.519C632.348 418.849 632.428 419.177 632.495 419.508C633.051 422.235 633.227 424.371 635.705 426.031C639.401 428.508 644.095 427.552 648.17 428.575C650.426 429.142 652.931 430.734 655.029 431.785L654.795 432.181C651.628 431.263 648.524 429.734 645.486 428.443C644.427 428.812 643.334 429.212 642.221 429.372C638.102 429.966 634.923 427.407 631.847 425.095L630.73 420.114C625.986 416.865 620.415 414.546 615.329 411.832C607.285 407.539 599.367 402.974 591.417 398.506C595.02 392.647 599.215 387.016 603.123 381.351C611.741 368.927 620.457 356.573 629.273 344.288L633.005 345.908C634.413 343.893 635.938 341.987 637.473 340.069Z"/><path fill="#ECF1F8" transform="matrix(1.55859 0 0 1.55762 -399.008 0.0078125)" d="M593.454 397.776C598.502 391.534 627.302 347.802 629.526 346.725C629.873 346.557 630.281 346.578 630.659 346.504L631.168 347.098C630.662 351.277 602.971 388.798 597.9 396.657C609.371 403.854 621.795 409.482 632.915 417.282L632.275 418.519C629.037 416.522 625.247 415.121 621.849 413.37C612.301 408.449 602.589 403.429 593.454 397.776Z"/><path fill="#ECF1F8" transform="matrix(1.55859 0 0 1.55762 -399.008 0.0078125)" d="M599.733 396.298L602.27 392.706C613.742 398.739 623.833 404.588 632.864 414.136L633.059 414.596C632.745 414.593 632.422 414.663 632.117 414.587C629.983 414.053 619.945 407.3 617.008 405.623C611.331 402.381 605.506 399.367 599.733 396.298Z"/><path fill="#9F6B47" transform="matrix(1.55859 0 0 1.55762 -399.008 0.0078125)" d="M316.884 361.829L318.001 361.877C329.185 378.044 341.211 395.134 353.46 410.445C359.205 407.557 384.279 398.064 386.262 396.407L386.91 397.069C389.847 395.899 393.335 397.361 395.902 395.417L395.74 394.77C396.765 392.937 397.862 391.461 399.273 389.906L400.437 390.45L401.323 391.316C399.969 393.742 398.008 395.902 396.283 398.077C394.126 398.258 391.816 398.364 389.714 398.889C384.595 400.165 368.996 404.948 365.47 408.46L365.38 409.238C366.588 409.863 368.269 409.07 369.553 408.672C375.424 406.853 383.305 400.749 389.295 401.73L388.923 401.943C387.573 402.701 386.25 403.239 384.789 403.741L384.399 404.347L384.523 404.616C379.939 407.85 357.088 415.985 350.626 418.091C346.392 413.051 342.823 407.251 338.861 401.968C329.745 389.811 320.359 377.792 311.669 365.326C312.058 364.461 312.415 364.087 313.058 363.412C314.711 363.253 315.554 362.724 316.884 361.829Z"/><path fill="#A67147" transform="matrix(1.55859 0 0 1.55762 -399.008 0.0078125)" d="M402.377 324.684L402.769 324.637L402.897 325.717L403.45 326.05C407.27 333.157 436.274 370.939 434.62 376.517C434.465 377.04 434.36 377.255 434.139 377.807C434.361 378.503 434.337 378.851 434.916 379.325C425.059 385.241 414.545 389.89 404.494 395.431C403.133 398.282 401.791 401.586 398.579 402.785C395.879 401.614 392.408 402.872 389.295 401.73C383.305 400.749 375.424 406.853 369.553 408.672C368.269 409.07 366.588 409.863 365.38 409.238L365.47 408.46C368.996 404.948 384.595 400.165 389.714 398.889C391.816 398.364 394.126 398.258 396.283 398.077C398.008 395.902 399.969 393.742 401.323 391.316L400.437 390.45L400.675 390.207C408.68 381.446 420.319 374.886 431.366 370.827L430.231 369.817C430.217 367.482 404.41 330.934 401.311 326.485L402.377 324.684Z"/><path fill="#ECF1F8" transform="matrix(1.55859 0 0 1.55762 -399.008 0.0078125)" d="M431.366 370.827C431.976 372.174 432.557 372.86 432.278 374.336C429.229 376.222 425.689 376.98 422.456 378.49C418.058 380.543 413.851 383.303 409.669 385.764C407.361 387.123 403.275 390.135 400.675 390.207C408.68 381.446 420.319 374.886 431.366 370.827Z"/><path fill="#A67147" transform="matrix(1.55859 0 0 1.55762 -399.008 0.0078125)" d="M669.032 309.414L675.529 310.388C680.446 311.461 685.898 312.198 690.553 314.137C689.896 319.07 689.559 327.995 686.462 331.927L685.455 332.235C680.295 329.766 670.953 328.911 665.164 327.777C666.004 321.561 667.202 315.417 669.032 309.414Z"/><path fill="#ECF1F8" transform="matrix(1.55859 0 0 1.55762 -399.008 0.0078125)" d="M403.45 326.05C404.262 326.022 405.334 325.748 405.963 326.306C409.277 329.243 415.005 339.54 417.657 343.548L439.128 375.725C437.468 376.423 435.816 377.153 434.139 377.807C434.36 377.255 434.465 377.04 434.62 376.517C436.274 370.939 407.27 333.157 403.45 326.05Z"/><path fill="#A4642F" transform="matrix(1.55859 0 0 1.55762 -399.008 0.0078125)" d="M402.769 324.637C403.998 324.305 405.637 323.41 406.718 324.263C408.631 325.772 437.5 370.187 441.181 376.178C439.122 377.309 437.108 378.467 434.916 379.325C434.337 378.851 434.361 378.503 434.139 377.807C435.816 377.153 437.468 376.423 439.128 375.725L417.657 343.548C415.005 339.54 409.277 329.243 405.963 326.306C405.334 325.748 404.262 326.022 403.45 326.05L402.897 325.717L402.769 324.637Z"/><path fill="#8B4B21" transform="matrix(1.55859 0 0 1.55762 -399.008 0.0078125)" d="M389.295 401.73C392.408 402.872 395.879 401.614 398.579 402.785C396.644 403.887 394.788 404.59 392.663 405.243C389.666 404.446 387.623 403.693 384.523 404.616L384.399 404.347L384.789 403.741C386.25 403.239 387.573 402.701 388.923 401.943L389.295 401.73Z"/><path fill="#8B4B21" transform="matrix(1.55859 0 0 1.55762 -399.008 0.0078125)" d="M540.978 330.656C545.946 330.064 550.983 330.665 555.672 332.41C562.791 335.098 568.534 340.333 571.645 347.326C574.941 354.813 575.107 363.308 572.108 370.919C569.224 378.195 563.429 384.419 556.22 387.532C548.082 391.045 540.038 390.372 531.97 387.205C530.632 389.406 529.109 391.468 527.599 393.551C525.072 396.996 521.558 404.029 517.447 405.43C515.935 405.945 514.587 405.878 513.172 405.104C511.41 404.141 509.423 402.023 509.069 399.984C508.312 395.636 519.001 383.763 521.802 379.758C518.71 375.284 516.257 370.911 515.254 365.505C513.818 357.76 515.586 349.272 520.114 342.823C525.15 335.652 532.575 332.037 540.978 330.656Z"/><path fill="#4C6D88" transform="matrix(1.55859 0 0 1.55762 -399.008 0.0078125)" d="M541.851 332.003C557.458 330.505 571.293 342.019 572.655 357.639C574.016 373.259 562.382 386.993 546.751 388.218C531.312 389.428 517.783 377.968 516.438 362.539C515.093 347.111 526.435 333.482 541.851 332.003Z"/><path fill="#8B4B21" transform="matrix(1.55859 0 0 1.55762 -399.008 0.0078125)" d="M541.013 337.742C553.41 335.831 565 344.357 566.866 356.761C568.733 369.165 560.165 380.724 547.754 382.546C535.406 384.358 523.919 375.843 522.062 363.502C520.205 351.161 528.679 339.643 541.013 337.742Z"/><path fill="#ECF1F8" transform="matrix(1.55859 0 0 1.55762 -399.008 0.0078125)" d="M541.45 339.144C553.05 337.48 563.791 345.567 565.398 357.176C567.004 368.784 558.863 379.485 547.247 381.034C535.712 382.571 525.102 374.5 523.507 362.973C521.912 351.446 529.931 340.796 541.45 339.144Z"/><path fill="#242A38" transform="matrix(1.55859 0 0 1.55762 -399.008 0.0078125)" d="M542.749 346.573C543.338 346.557 543.913 346.54 544.501 346.592C546.74 346.79 549.472 347.633 550.828 349.559C551.639 350.712 551.893 352.124 551.724 353.502C551.428 355.908 546.066 364.447 544.078 365.727C543.424 366.149 543.459 365.956 542.59 365.78C541.687 364.583 541.638 363.51 541.477 362.075C542.278 359.126 544.806 356.821 546.067 353.977C545.449 352.908 545.332 352.793 544.242 352.214C542.344 352.426 540.418 354.6 538.638 355.532C537.258 355.438 537.289 355.274 536.306 354.27C535.978 353.004 535.738 352.272 536.422 351.072C537.911 348.457 539.947 347.311 542.749 346.573Z"/><path fill="#242A38" transform="matrix(1.55859 0 0 1.55762 -399.008 0.0078125)" d="M543.155 367.45C544.478 366.828 546.057 367.363 546.729 368.662C547.402 369.96 546.928 371.558 545.656 372.28C544.789 372.773 543.722 372.751 542.875 372.224C542.028 371.698 541.537 370.75 541.595 369.754C541.654 368.758 542.252 367.874 543.155 367.45Z"/><path fill="#CF9362" transform="matrix(1.55859 0 0 1.55762 -399.008 0.0078125)" d="M522.385 381.407C525.06 383.198 527.752 384.962 530.463 386.699C526.801 392.376 522.188 398.382 517.46 403.213C517.23 403.32 517.008 403.445 516.77 403.533C515.616 403.963 514.58 404.095 513.47 403.474C512.37 402.857 511.437 401.905 511.18 400.635C510.191 395.74 519.603 385.506 522.385 381.407Z"/><path fill="#8B4B21" transform="matrix(1.55859 0 0 1.55762 -399.008 0.0078125)" d="M680.293 466.3C684.34 467.279 692.779 476.368 696.148 479.472C690.962 485.19 685.944 491.076 680.862 496.887L679.993 497.021C674.616 494.362 669.512 488.232 665.165 484.1C670.448 478.447 675.308 472.227 680.293 466.3Z"/><path fill="#FAE5B7" transform="matrix(1.55859 0 0 1.55762 -399.008 0.0078125)" d="M680.756 468.407C685.231 472.087 689.633 475.856 693.959 479.71C689.32 484.994 684.728 490.32 680.186 495.688C675.81 491.829 671.559 487.831 667.438 483.7C671.796 478.532 676.236 473.434 680.756 468.407Z"/><path fill="#8B4B21" transform="matrix(1.55859 0 0 1.55762 -399.008 0.0078125)" d="M531.212 234.497C532.852 235.07 539.955 248.81 541.346 251.257L524.458 261.555C522.129 260.297 515.752 247.664 514.038 244.684C519.783 241.323 525.508 237.927 531.212 234.497Z"/><path fill="#E8B786" transform="matrix(1.55859 0 0 1.55762 -399.008 0.0078125)" d="M530.207 236.959C533.372 238.125 537.606 247.739 539.401 250.867L525.022 259.556C522.854 257.986 517.793 248.05 516.104 245.203C521 242.866 525.588 239.796 530.207 236.959Z"/><path fill="#A4642F" transform="matrix(1.55859 0 0 1.55762 -399.008 0.0078125)" d="M334.801 164.916C336.362 164.78 337.111 164.715 338.579 165.401C341.345 168.26 341.169 172.131 341.602 175.893C343.605 175.372 346.171 174.204 348.226 174.238C349.627 174.26 350.192 174.71 351.156 175.641C352.088 178.653 350.977 181.518 350.139 184.43C351.711 185.824 353.87 187.334 354.075 189.587C354.402 193.188 350.421 196.692 348.295 199.201C349.399 206.77 348.155 214.509 347.034 222.007C347.495 222.336 347.898 222.767 348.417 222.994C350.913 224.087 406.163 223.845 411.326 223.155C411.411 222.962 411.504 222.773 411.581 222.577C412.815 219.454 411.787 202.01 410.584 198.616C409.669 196.031 407.555 193.957 406.61 191.375C406.269 190.443 406.108 189.627 406.203 188.629C406.328 187.316 407.657 186.676 408.041 185.556C409.02 182.697 407.677 178.638 409.247 175.917C409.834 174.899 410.407 174.201 411.632 174.016C414.294 173.614 417.511 176.244 419.555 177.687C420.077 174.001 419.746 168.866 422.438 165.955C423.227 165.102 423.494 165.165 424.583 165.113C429.007 167.985 429.902 175.246 430.978 180.057C433.75 176.747 436.359 170.157 441.001 169.45C442.252 169.26 443.03 169.246 444.096 169.981C445.903 173.876 445.23 188.416 443.311 192.356C441.81 195.439 438.055 197.672 437.105 200.998C438.184 201.527 439.093 202.077 440.056 202.795C440.891 205.283 440.552 208.67 440.602 211.303C441.085 215.199 440.435 219.123 439.886 222.978C444.649 223.672 456.636 222.504 459.19 224.161C461.284 226.933 460.298 230.148 459.898 233.353C445.986 233.726 432.013 233.439 418.094 233.409L349.841 233.384C340.224 233.36 330.607 233.434 320.991 233.607C313.976 233.729 306.562 234.421 299.612 233.372C299.388 230.491 298.638 226.27 299.83 223.615C305.733 221.687 314.945 223.578 321.265 223.512C318.441 214.974 317.984 206.404 320.613 197.78C319.13 195.117 317.309 192.326 316.458 189.383C316.39 189.148 316.335 188.91 316.268 188.675C316.027 187.824 315.798 187.009 315.633 186.137C314.867 182.089 313.835 172.912 316.349 169.387C317.567 168.742 317.918 168.519 319.348 168.805C323.382 169.613 327.232 175.97 329.598 179.117C331.076 174.503 331.124 168.304 334.801 164.916ZM438.068 221.256C439.442 216.802 440.442 208.285 439.029 203.854C437.097 202.48 416.964 202.838 412.775 202.517C413.502 208.616 413.584 215.165 415.585 220.975C420.907 222.76 431.256 224.565 436.587 222.128C437.375 221.768 437.43 221.696 438.068 221.256ZM344.987 221.502C345.086 215.258 346.833 209.207 347.119 203.007C338.356 202.921 329.501 202.813 320.742 203.09C320.609 207.977 320.035 216.281 323.569 220.129C326.119 222.905 330.222 223.102 333.736 223.1C337.255 223.097 342.055 223.712 344.987 221.502Z"/><path fill="#ECF1F8" transform="matrix(1.55859 0 0 1.55762 -399.008 0.0078125)" d="M301.726 225.094C326.297 224.561 351 225.307 375.586 225.239C403.153 225.163 430.928 224.307 458.465 225.396L458.449 231.877C437.04 232.637 415.362 231.812 393.916 231.821C363.174 231.835 332.326 232.463 301.594 231.754C301.581 229.535 301.672 227.312 301.726 225.094Z"/><path fill="#ECF1F8" transform="matrix(1.55859 0 0 1.55762 -399.008 0.0078125)" d="M317.766 170.634C318.907 170.895 319.792 171.173 320.77 171.836C329.935 178.05 333.023 191.248 334.984 201.37C335.333 197.696 335.618 194.308 336.954 190.829C338.59 186.57 343.391 177.45 347.846 175.801C348.753 175.465 348.881 175.766 349.709 176.142C349.647 178.558 349.326 180.883 348.332 183.111C346.158 187.979 341.319 190.633 338.289 194.853C337.189 196.384 335.954 200.203 334.281 200.8C332.742 199.092 331.166 192.878 328.823 189.612C326.009 185.69 321.457 183.278 318.827 179.483C316.985 176.825 317.33 173.65 317.766 170.634Z"/><path fill="#ECF1F8" transform="matrix(1.55859 0 0 1.55762 -399.008 0.0078125)" d="M336.123 166.249C336.285 166.296 336.452 166.327 336.608 166.391C337.932 166.942 338.783 168.403 339.212 169.717C341.548 176.866 337.922 184.9 334.796 191.16C333.514 188.254 331.996 185.27 331.529 182.104C330.695 176.465 332.78 170.746 336.123 166.249Z"/><path fill="#ECF1F8" transform="matrix(1.55859 0 0 1.55762 -399.008 0.0078125)" d="M411.247 176.189C415.805 177.36 420.003 182.509 422.41 186.411C424.668 190.072 427.431 197.013 426.412 201.301C425.299 199.288 424.182 196.942 422.607 195.256C419.023 191.422 414.021 188.491 411.568 183.719C410.233 181.121 410.37 178.891 411.247 176.189Z"/><path fill="#ECF1F8" transform="matrix(1.55859 0 0 1.55762 -399.008 0.0078125)" d="M317.648 183.405C320.373 183.462 322.05 184.233 324.048 186.057C327.83 189.509 331.518 195.865 331.816 201.096C330.449 201.136 328.82 201.271 327.513 200.865C324.081 199.798 320.414 194.578 318.973 191.454C317.729 188.76 316.631 186.325 317.648 183.405Z"/><path fill="#ECF1F8" transform="matrix(1.55859 0 0 1.55762 -399.008 0.0078125)" d="M441.041 170.77C441.735 171.064 442.503 171.632 442.746 172.358C444.934 178.89 435.811 185.191 432.332 189.638C430.747 191.664 429.666 193.97 428.604 196.295L428.177 196.775L427.7 196.364C427.569 195.089 427.549 193.948 427.708 192.676C428.648 185.135 434.966 175.485 441.041 170.77Z"/><path fill="#ECF1F8" transform="matrix(1.55859 0 0 1.55762 -399.008 0.0078125)" d="M440.707 183.862C440.98 183.979 441.268 184.066 441.526 184.212C442.221 184.605 442.649 184.95 442.808 185.736C443.293 188.14 442.051 190.591 440.841 192.594C438.717 196.111 435.175 201.074 431.083 202.127L429.23 201.479C428.603 200.046 428.874 198.787 429.396 197.328C431.227 192.211 435.843 186.275 440.707 183.862Z"/><path fill="#ECF1F8" transform="matrix(1.55859 0 0 1.55762 -399.008 0.0078125)" d="M423.587 167.176C425.636 168.064 427.007 170.716 427.815 172.702C430.296 178.8 428.847 183.98 426.539 189.753C426.303 189.884 426.003 189.81 425.734 189.818C424.614 187.546 423.397 185.239 422.617 182.826C420.866 177.411 421.001 172.284 423.587 167.176Z"/><path fill="#ECF1F8" transform="matrix(1.55859 0 0 1.55762 -399.008 0.0078125)" d="M407.53 188.72C408.995 188.926 410.377 189.202 411.795 189.631C418.171 191.561 421.161 195.473 424.204 201.066C420.767 201.081 418.052 200.908 414.974 199.229C410.821 196.965 408.837 193.062 407.53 188.72Z"/><path fill="#ECF1F8" transform="matrix(1.55859 0 0 1.55762 -399.008 0.0078125)" d="M348.681 189.048C349.665 188.987 350.531 189.033 351.508 189.159L352.221 190.104C352.202 190.786 352.239 190.831 352.012 191.579C350.816 195.523 344.465 199.229 341.01 200.865C339.673 200.986 338.982 201.163 337.717 200.584C337.408 199.336 337.408 199.051 337.964 197.809C339.73 193.864 344.92 190.597 348.681 189.048Z"/><path fill="#ECF1F8" fill-opacity="0.98431373" transform="matrix(1.55859 0 0 1.55762 -399.008 0.0078125)" d="M410.348 257.436C410.462 260.382 401.841 278.529 399.844 280.974L399.136 280.376C397.261 281.023 397.429 282.135 396.06 282.96C395.439 283.333 394.645 283.321 394.009 283.74C393.233 281.702 393.677 281.087 391.839 279.448C390.666 278.402 389.515 277.645 389.329 275.954C388.655 269.844 403.26 265.362 407.401 260.717L410.348 257.436Z"/></g></svg>