<?xml version="1.0" encoding="utf-8" ?><svg xmlns="http://www.w3.org/2000/svg" xmlns:xlink="http://www.w3.org/1999/xlink"  viewBox="260 260 500 500"><path fill="#7F5A43" d="M556.29 431.673C567.55 430.964 575.737 434.018 585.444 439.537C588.99 439.201 593.744 438.96 596.872 440.91C599.534 442.569 600.52 445.372 601.055 448.322C602.929 458.655 601.201 477.506 601.191 488.726C601.179 502.188 602.493 516.263 601.446 529.652C601.277 531.809 600.976 534.343 599.61 536.114C595.846 540.991 587.371 540.215 581.779 540.753C560.39 542.811 536.46 557.002 522.991 573.479C522.873 573.623 522.758 573.77 522.642 573.915C533.738 568.268 544.987 564.123 557.064 561.18C563.514 559.609 590.961 556.183 594.398 554.036C597.726 551.959 596.192 547.185 599.973 544.856C601.07 544.859 601.665 544.74 602.464 545.658C603.98 547.399 604.459 550.795 604.078 552.996C603.53 556.167 601.222 558.871 598.56 560.538C592.179 564.533 572.822 566.503 564.542 568.212C553.849 570.419 542.447 573.2 532.539 577.839C529.137 579.431 512.916 589.134 510.777 588.914C505.598 588.379 499.629 582.119 494.834 579.816C483.771 574.503 472.143 571.252 460.219 568.592C454.54 567.518 448.804 566.693 443.102 565.744C434.96 564.391 426.841 563.386 421.709 556.206C421.374 553.749 421.004 551.068 421.452 548.611C421.754 546.949 422.329 546.22 423.705 545.305C428.556 546.079 429.245 554.987 434.645 556.455C441.154 558.225 448.825 558.471 455.55 559.487C470.828 561.797 486.95 566.618 500.674 573.793C486.624 558.167 469.578 547.279 448.967 542.652C442.294 541.154 430.675 541.62 425.508 537.016C424.283 533.915 423.964 530.17 423.785 526.856C423.016 512.633 423.72 498.084 423.657 483.812C423.6 471.069 422.739 458.122 423.357 445.41C423.517 442.106 423.357 436.244 426.112 434.045C430.45 430.581 441.879 431.941 447.299 432.426C474.109 434.828 493.744 444.032 510.976 464.728L511.521 464.065C514.832 459.986 518.993 456.835 522.573 453.018C534.045 440.787 539.035 434.28 556.29 431.673ZM555.612 439.594C545.618 441.65 538.321 445.139 532.554 453.819C528.21 460.355 526.38 468.527 527.908 476.263C531.149 492.67 545.041 495.234 547.051 502.522C547.916 505.662 547.125 509.608 546.797 512.824L556.992 503.95C557.182 503.866 557.372 503.779 557.562 503.697C561.855 501.843 566.456 501.498 570.974 500.465C580.218 498.352 587.939 491.429 591.502 482.702C594.53 475.15 594.424 466.703 591.207 459.229C587.696 451.169 580.794 444.965 572.647 441.792C567.081 439.623 561.545 439.158 555.612 439.594ZM515.048 570.499C532.101 550.195 555.322 536.024 581.88 532.784C585.734 532.242 589.672 532.147 593.504 531.506C593.969 518.802 594.221 506.154 593.693 493.444C584.516 504.664 574.852 508.912 560.642 510.603C557.192 513.486 547.335 522.395 543.18 522.338C541.956 522.321 541.109 522.03 540.357 521.015C537.791 517.551 540.046 508.673 540.693 504.534C530.953 498.081 523.138 490.79 520.791 478.859C519.934 474.508 520.401 470.273 519.888 465.96C518.557 467.311 517.087 468.68 516.279 470.423C514 475.338 514.755 483.881 514.796 489.315C515 516.363 515.677 543.454 515.048 570.499ZM431.775 531.894C450.194 534.581 466.139 537.507 482.324 547.596C490.416 552.64 497.154 558.827 503.605 565.793C504.528 566.789 506.209 569.288 507.477 569.258L507.344 504.997C507.339 496.761 508.457 481.552 506.848 473.938C505.927 469.582 502.186 465.062 499.09 461.98C481.243 444.214 455.536 439.968 431.462 439.972L431.438 497.838C431.427 509.04 430.737 520.741 431.775 531.894Z"/><path fill="#7F5A43" d="M559.506 467.219C561.877 467.032 563.954 468.795 564.155 471.164C564.357 473.534 562.608 475.621 560.239 475.838C557.85 476.056 555.74 474.288 555.537 471.897C555.333 469.507 557.114 467.408 559.506 467.219Z"/><path fill="#7F5A43" d="M573.56 467.741C574.946 467.046 576.6 467.153 577.885 468.021C579.171 468.89 579.887 470.384 579.759 471.93C579.631 473.475 578.678 474.832 577.268 475.477C575.141 476.45 572.626 475.539 571.615 473.43C570.604 471.321 571.469 468.79 573.56 467.741Z"/><path fill="#7F5A43" d="M543.298 467.695C545.391 466.764 547.842 467.71 548.768 469.805C549.694 471.9 548.743 474.349 546.646 475.271C544.555 476.189 542.115 475.242 541.192 473.153C540.269 471.064 541.211 468.622 543.298 467.695Z"/><path fill="#7F5A43" d="M409.104 462.188C411.016 462.04 413.011 461.68 414.541 463.103C416.302 464.741 415.711 469.125 415.682 471.354L411.301 473.902C411.898 484.951 411.351 496.306 411.354 507.384L411.354 574.42C433.055 574.872 463.676 578.371 484.381 585.315C494.057 588.56 500.639 599.332 510.393 599.613C521.332 599.927 527.06 588.261 536.97 585.337C561.776 578.019 587.942 575.328 613.675 573.94C613.167 562.613 613.567 551.072 613.561 539.719L613.472 474.196C613.335 474.103 613.198 474.011 613.062 473.917C611.168 472.591 609.576 470.975 609.267 468.569C609.097 467.248 609.451 465.939 610.307 464.91C611.617 463.335 613.718 462.667 615.712 462.697C618.278 462.735 620.856 463.821 622.642 465.67C625.266 468.389 625.467 470.98 625.425 474.572C625.136 496.611 625.397 518.712 625.472 540.756C625.499 548.843 627.022 575.659 624.781 581.953C623.471 585.631 612.122 585.446 608.678 585.561C592.111 586.115 553.394 590.355 538.753 597.217C532.722 600.043 528.784 605.676 522.538 608.277C514.071 611.804 501.238 611.311 493.743 605.733C490.448 603.282 488.143 599.78 484.416 597.825C473.424 592.061 442.34 588.114 429.294 587.246C422.512 586.795 408.571 587.391 402.776 584.752C401.642 584.236 401.127 583.678 400.726 582.529C398.772 576.931 399.022 486.403 399.672 474.808C399.808 472.386 399.948 469.54 401.062 467.356C402.646 464.25 406.007 463.163 409.104 462.188Z"/></svg>